<svg version="1.1" preserveAspectRatio="none" xmlns="http://www.w3.org/2000/svg" width="500" height="500" viewBox="0 0 500 500"><rect width="100%" height="100%" fill="#000000" fill-opacity="1"/><svg viewBox="-314.4052 348.798 309.3483 222" width="333" height="238.9733513971145" x="83.5px" y="130.5133px" xmlns="http://www.w3.org/2000/svg" xmlns:xlink="http://www.w3.org/1999/xlink" preserveAspectRatio="none"><defs></defs><style>.aRWrrEA-PR0filter-floo {flood-color:#E9B0D6;flood-opacity:0.5;}.atUk6sjh6M0filter-floo {flood-color:#FFFFFF;flood-opacity:0.89;}.companyName {fill:#FFFFFF;fill-opacity:1;}.icon3 {fill:#F55139;fill-opacity:1;}.icon3-str {stroke:#F55139;stroke-opacity:1;}.shape-floo {flood-color:#2525CE;flood-opacity:1;}.text {fill:#F3F3F3;fill-opacity:1;}</style><defs>
    <filter
      x="-314.4052"
      y="348.798"
      width="309.3483"
      height="222"
      id="ikYEXSHZT"
      filterUnits="userSpaceOnUse"
      primitiveUnits="userSpaceOnUse"
      color-interpolation-filters="sRGB">
      
  <feGaussianBlur in="SourceGraphic" stdDeviation="7"/>
  <feOffset dx="3.860375059564381" dy="3.860375059564381" result="rUIv-qwKayN"/>
  <feFlood flood-color="#2525CE" flood-opacity="1" in="rUIv-qwKayN" />
  <feComposite  in2="rUIv-qwKayN" operator="in" result="a1GIRT0G0B0v"/><feMerge result="-sN-e738rig"><feMergeNode in="a1GIRT0G0B0v" /><feMergeNode in="SourceGraphic" /></feMerge><feGaussianBlur  result="HRAkBlJpP2P" stdDeviation="10" />
    </filter>
    <filter
      x="-282.4969"
      y="383.9376"
      width="237.8109"
      height="144"
      id="tUk6sjh6M"
      filterUnits="userSpaceOnUse"
      primitiveUnits="userSpaceOnUse"
      color-interpolation-filters="sRGB">
      
  <feGaussianBlur in="SourceGraphic" stdDeviation="4"/>
  <feOffset dx="0" dy="0" result="pXiPcJwRufu"/>
  <feFlood flood-color="#FFFFFF" flood-opacity="0.89" in="pXiPcJwRufu" />
  <feComposite  in2="pXiPcJwRufu" operator="in" result="hFJGJLUdaKc"/><feMerge result="a1wADDPEYLxi"><feMergeNode in="hFJGJLUdaKc" /><feMergeNode in="SourceGraphic" /></feMerge>
    </filter></defs><g opacity="1" transform="rotate(0 -235.1077 543.9376)">
<svg width="143.0326" height="16.8" x="-235.1077" y="543.9376" version="1.1" preserveAspectRatio="none" viewBox="2.2 -32.76 302.72 35.56">
<g transform="matrix(1 0 0 1 0 0)" class="text"><path id="id-6izo4zJp9" d="M11.16-7.60C7.92-7.60 5.56-10.24 5.56-13.68C5.56-17.08 7.92-19.76 11.16-19.76C14.44-19.76 16.80-17.08 16.80-13.68C16.80-10.24 14.44-7.60 11.16-7.60ZM11.16-21.56C6.84-21.56 3.64-18.32 3.64-13.68C3.64-9 6.84-5.76 11.16-5.76C15.56-5.76 18.72-9 18.72-13.68C18.72-18.32 15.56-21.56 11.16-21.56ZM12.24-31.64L10.12-31.64L10.12-26.20L2.20-26.20L2.20-24.40L20.20-24.40L20.20-26.20L12.24-26.20ZM30-32.72L30-17.44L24.36-17.44L24.36-31.84L22.28-31.84L22.28 0.92L24.36 0.92L24.36-15.64L30-15.64L30 2.80L32.08 2.80L32.08-32.72Z M47.16-28.24L45.04-28.24L45.04-6.72L47.16-6.72C51.16-6.72 55.16-6.96 60.16-7.96L59.88-9.84C55.08-8.84 51.00-8.64 47.16-8.64ZM70.96-32.76L70.96-17.84L64.80-17.84L64.80-31.88L62.76-31.88L62.76 0.88L64.80 0.88L64.80-15.96L70.96-15.96L70.96 2.80L73 2.80L73-32.76Z M109.56-25.24C109.56-20.96 109.56-16.12 108.28-9.48L110.44-9.16C111.68-16.12 111.68-20.92 111.68-25.24L111.68-28.80L87.36-28.80L87.36-27.04L109.56-27.04ZM99.12-4.44L99.12-17.44L97.04-17.44L97.04-4.44L83.88-4.44L83.88-2.64L116-2.64L116-4.44Z M166.44-32.68L164.32-32.68L164.32-12.92L166.44-12.92ZM158.84-16.20C153.88-17.96 149.44-22.56 149.44-27.88L149.44-31.36L147.36-31.36L147.36-27.88C147.36-22.28 143-17.40 138-15.52L139.12-13.84C143.28-15.48 146.96-19 148.44-23.56C149.96-19.32 153.68-16.04 157.80-14.52ZM150.64-8.72L159.32-8.72L159.32 0.44L150.64 0.44ZM161.40 0.44L161.40-8.72L166.68-8.72L166.68-10.48L143.20-10.48L143.20-8.72L148.52-8.72L148.52 0.44L142.92 0.44L142.92 2.24L167.08 2.24L167.08 0.44Z M194.40-29.72C200.48-29.72 204.52-27.68 204.52-24.52C204.52-21.32 200.48-19.32 194.40-19.32C188.32-19.32 184.28-21.32 184.28-24.52C184.28-27.68 188.32-29.72 194.40-29.72ZM194.40-17.56C201.96-17.56 206.68-20.12 206.68-24.52C206.68-28.92 201.96-31.44 194.40-31.44C186.84-31.44 182.12-28.92 182.12-24.52C182.12-20.12 186.84-17.56 194.40-17.56ZM184.76-8.36L182.64-8.36L182.64 1.92L206.96 1.92L206.96 0.12L184.76 0.12ZM178.32-13.72L178.32-11.92L210.44-11.92L210.44-13.72Z M235.72-27.28L247.48-27.28L247.48-8.24L235.72-8.24ZM233.64-6.48L249.52-6.48L249.52-29.04L233.64-29.04ZM265.28-18.08L259.04-18.08L259.04-32.72L256.92-32.72L256.92 2.76L259.04 2.76L259.04-16.28L265.28-16.28Z M288.88-31.84C281.28-31.84 276.60-29.48 276.60-25.28C276.60-21.12 281.28-18.72 288.88-18.72C296.48-18.72 301.16-21.12 301.16-25.28C301.16-29.48 296.48-31.84 288.88-31.84ZM288.88-30.12C295-30.12 299-28.28 299-25.28C299-22.32 295-20.44 288.88-20.44C282.76-20.44 278.76-22.32 278.76-25.28C278.76-28.28 282.76-30.12 288.88-30.12ZM276.88-9.20L276.88 2.24L300.96 2.24L300.96-9.20ZM298.88-7.44L298.88 0.44L278.92 0.44L278.92-7.44ZM272.80-15.08L272.80-13.28L304.92-13.28L304.92-15.08Z"/></g>
</svg>
</g><g filter="url(#ikYEXSHZT)"><g opacity="1" transform="rotate(0 -267.2656 395.9376)">
<svg width="207.3483" height="120" x="-267.2656" y="395.9376" version="1.1" preserveAspectRatio="none" viewBox="2.04 -28.48 50.04 28.96">
<g transform="matrix(1 0 0 1 0 0)" class="icon3"><path id="id-BEGfasMba2" d="M15.88 0.48Q11.68 0.48 8.54-1.04Q5.40-2.56 3.72-5.32Q2.04-8.08 2.04-11.68L2.04-11.68Q2.04-16.44 4.22-20.26Q6.40-24.08 10.36-26.28Q14.32-28.48 19.44-28.48L19.44-28.48Q23.20-28.48 26.08-27.20Q28.96-25.92 30.44-23.52L30.44-23.52L25.76-19.68Q23.52-22.96 19-22.96L19-22.96Q15.92-22.96 13.56-21.52Q11.20-20.08 9.90-17.60Q8.60-15.12 8.60-12.08L8.60-12.08Q8.60-8.84 10.66-6.94Q12.72-5.04 16.44-5.04L16.44-5.04Q20.88-5.04 23.88-8.28L23.88-8.28L27.72-4.36Q23.56 0.48 15.88 0.48L15.88 0.48Z M30.48 0L36.08-28L42.60-28L38.04-5.28L52.08-5.28L51 0L30.48 0Z"/></g>
</svg>
</g></g><g filter="url(#tUk6sjh6M)"><g opacity="1" transform="rotate(0 -270.4969 395.9376)">
<svg width="213.8109" height="120" x="-270.4969" y="395.9376" version="1.1" preserveAspectRatio="none" viewBox="1.56 -28.48 51.599999999999994 28.96">
<g transform="matrix(1 0 0 1 0 0)" class="companyName"><path id="id-D6z1nYkh2" d="M16.72 0.48Q12.44 0.48 8.98-1.38Q5.52-3.24 3.54-6.54Q1.56-9.84 1.56-14L1.56-14Q1.56-18.16 3.54-21.46Q5.52-24.76 8.98-26.62Q12.44-28.48 16.76-28.48L16.76-28.48Q20.40-28.48 23.34-27.20Q26.28-25.92 28.28-23.52L28.28-23.52L24.12-19.68Q21.28-22.96 17.08-22.96L17.08-22.96Q14.48-22.96 12.44-21.82Q10.40-20.68 9.26-18.64Q8.12-16.60 8.12-14L8.12-14Q8.12-11.40 9.26-9.36Q10.40-7.32 12.44-6.18Q14.48-5.04 17.08-5.04L17.08-5.04Q21.28-5.04 24.12-8.36L24.12-8.36L28.28-4.52Q26.28-2.08 23.32-0.80Q20.36 0.48 16.72 0.48L16.72 0.48Z M32.64 0L32.64-28L39.12-28L39.12-5.28L53.16-5.28L53.16 0L32.64 0Z"/></g>
</svg>
</g></g></svg></svg>